# xmcd CD database file
#
# Track frame offsets:
#	150
#	13089
#	26150
#	41809
#	57790
#	72291
#	95895
#	111341
#	130792
#	145342
#	162619
#	181951
#	199183
#	216299
#	232074
#	247466
#
# Disc length: 3461 seconds
#
# Revision: 0
# Processed by: cddbd v1.5.2PL0 Copyright (c) Steve Scherf et al.
# Submitted via: CDex 1.51
#
DISCID=020d8310
DTITLE=Get Up And Dance special nr 57 - Get Up And Dance special nr 57
DYEAR=2007
DGENRE=Country
TTITLE0=Good Hearted Woman
TTITLE1=Borrowed Love
TTITLE2=You´re Miy Destiny
TTITLE3=Somebody´s Baby
TTITLE4=Don´t Push Me
TTITLE5=Dancing Floor
TTITLE6=Guardin Angel
TTITLE7=Gentle River
TTITLE8=Ons Of Those Things
TTITLE9=Seven Wonders
TTITLE10=Mr.Luver
TTITLE11=Ain´t Got No Money
TTITLE12=Mighty Real
TTITLE13=My Heart Is Broken Too
TTITLE14=No Tricks
TTITLE15=No Tricks    Country
EXTD=YEAR: 2007
EXTT0=
EXTT1=
EXTT2=
EXTT3=
EXTT4=
EXTT5=
EXTT6=
EXTT7=
EXTT8=
EXTT9=
EXTT10=
EXTT11=
EXTT12=
EXTT13=
EXTT14=
EXTT15=
PLAYORDER=
